<svg data-v-423bf9ae="" xmlns="http://www.w3.org/2000/svg" viewBox="0 0 341.425292187902 60" class="font"><!----><!----><!----><g data-v-423bf9ae="" id="95067175-a52c-45f1-b297-8c96cb63e097" fill="black" transform="matrix(4.597701082226675,0,0,4.597701082226675,-3.2183910871862054,-15.12643686197454)"><path d="M2.51 6.27L2.51 7.11L2.51 7.11Q2.62 6.86 2.85 6.68L2.85 6.68L2.85 6.68Q3.08 6.50 3.36 6.37L3.36 6.37L3.36 6.37Q3.64 6.24 3.93 6.17L3.93 6.17L3.93 6.17Q4.23 6.10 4.48 6.09L4.48 6.09L4.48 6.09Q5.01 6.06 5.53 6.24L5.53 6.24L5.53 6.24Q6.05 6.41 6.48 6.85L6.48 6.85L6.48 6.85Q7.11 7.50 7.11 8.74L7.11 8.74L7.11 13.52L5.32 13.52L5.32 13.52Q5.32 13.29 5.33 12.88L5.33 12.88L5.33 12.88Q5.33 12.47 5.33 11.99L5.33 11.99L5.33 11.99Q5.33 11.51 5.33 10.99L5.33 10.99L5.33 10.99Q5.33 10.47 5.32 10.01L5.32 10.01L5.32 10.01Q5.31 9.55 5.28 9.18L5.28 9.18L5.28 9.18Q5.25 8.82 5.21 8.65L5.21 8.65L5.21 8.65Q5.10 8.20 4.78 7.98L4.78 7.98L4.78 7.98Q4.47 7.76 4.10 7.76L4.10 7.76L4.10 7.76Q3.63 7.76 3.36 8.02L3.36 8.02L3.36 8.02Q3.09 8.27 3.09 8.69L3.09 8.69L3.09 8.69Q2.93 8.64 2.76 8.46L2.76 8.46L2.76 8.46Q2.59 8.29 2.51 8.09L2.51 8.09L2.51 8.47L2.51 13.52L0.70 13.52L0.70 6.27L2.51 6.27ZM8.79 13.52L8.79 7.74L8.79 7.74Q8.82 7.32 8.97 7.04L8.97 7.04L8.97 7.04Q9.11 6.76 9.35 6.59L9.35 6.59L9.35 6.59Q9.59 6.43 9.91 6.35L9.91 6.35L9.91 6.35Q10.22 6.27 10.60 6.27L10.60 6.27L10.60 13.52L8.79 13.52ZM9.70 3.29L9.70 3.29L9.70 3.29Q10.18 3.29 10.51 3.64L10.51 3.64L10.51 3.64Q10.86 3.98 10.86 4.47L10.86 4.47L10.86 4.47Q10.86 4.96 10.53 5.31L10.53 5.31L10.53 5.31Q10.33 5.50 10.07 5.58L10.07 5.58L10.07 5.58Q9.81 5.66 9.55 5.73L9.55 5.73L9.55 5.73Q9.30 5.81 9.08 5.92L9.08 5.92L9.08 5.92Q8.86 6.02 8.78 6.26L8.78 6.26L8.78 6.26Q8.71 6.03 8.63 5.68L8.63 5.68L8.63 5.68Q8.55 5.33 8.53 4.96L8.53 4.96L8.53 4.96Q8.51 4.58 8.58 4.22L8.58 4.22L8.58 4.22Q8.64 3.86 8.88 3.63L8.88 3.63L8.88 3.63Q9.21 3.29 9.70 3.29ZM15.78 16.34L15.78 16.34L15.78 16.34Q15.08 16.34 14.43 16.17L14.43 16.17L14.43 16.17Q13.78 16.00 13.31 15.66L13.31 15.66L13.31 15.66Q12.85 15.32 12.66 14.79L12.66 14.79L12.66 14.79Q12.46 14.27 12.67 13.54L12.67 13.54L12.67 13.54Q12.89 13.79 13.25 14.00L13.25 14.00L13.25 14.00Q13.61 14.21 14.01 14.36L14.01 14.36L14.01 14.36Q14.41 14.50 14.82 14.59L14.82 14.59L14.82 14.59Q15.23 14.67 15.58 14.66L15.58 14.66L15.58 14.66Q16.23 14.63 16.63 14.45L16.63 14.45L16.63 14.45Q17.04 14.27 17.27 13.98L17.27 13.98L17.27 13.98Q17.50 13.69 17.58 13.33L17.58 13.33L17.58 13.33Q17.67 12.96 17.67 12.57L17.67 12.57L17.67 12.57Q17.14 13.10 16.51 13.34L16.51 13.34L16.51 13.34Q15.89 13.57 15.26 13.55L15.26 13.55L15.26 13.55Q14.63 13.52 14.04 13.25L14.04 13.25L14.04 13.25Q13.44 12.98 12.98 12.49L12.98 12.49L12.98 12.49Q12.53 12.00 12.26 11.30L12.26 11.30L12.26 11.30Q11.98 10.60 11.98 9.73L11.98 9.73L11.98 9.73Q11.98 8.89 12.28 8.20L12.28 8.20L12.28 8.20Q12.57 7.52 13.07 7.04L13.07 7.04L13.07 7.04Q13.57 6.57 14.20 6.31L14.20 6.31L14.20 6.31Q14.84 6.06 15.53 6.09L15.53 6.09L15.53 6.09Q16.20 6.12 16.60 6.39L16.60 6.39L16.60 6.39Q17.01 6.66 17.20 7.02L17.20 7.02L17.20 7.02Q17.39 7.38 17.39 7.76L17.39 7.76L17.39 7.76Q17.40 8.13 17.28 8.36L17.28 8.36L17.28 8.36Q17.15 8.19 16.98 8.07L16.98 8.07L16.98 8.07Q16.80 7.95 16.60 7.88L16.60 7.88L16.60 7.88Q16.39 7.81 16.18 7.78L16.18 7.78L16.18 7.78Q15.96 7.76 15.76 7.76L15.76 7.76L15.76 7.76Q15.12 7.76 14.69 8.06L14.69 8.06L14.69 8.06Q14.25 8.37 14.03 8.83L14.03 8.83L14.03 8.83Q13.80 9.28 13.80 9.81L13.80 9.81L13.80 9.81Q13.79 10.35 14.01 10.80L14.01 10.80L14.01 10.80Q14.22 11.26 14.66 11.56L14.66 11.56L14.66 11.56Q15.11 11.87 15.76 11.87L15.76 11.87L15.76 11.87Q16.32 11.87 16.69 11.65L16.69 11.65L16.69 11.65Q17.05 11.42 17.27 11.05L17.27 11.05L17.27 11.05Q17.49 10.68 17.58 10.21L17.58 10.21L17.58 10.21Q17.67 9.74 17.67 9.25L17.67 9.25L17.67 7.04L17.67 6.27L19.49 6.27L19.49 12.71L19.49 12.71Q19.49 13.54 19.25 14.21L19.25 14.21L19.25 14.21Q19.01 14.88 18.54 15.36L18.54 15.36L18.54 15.36Q18.07 15.83 17.38 16.09L17.38 16.09L17.38 16.09Q16.69 16.34 15.78 16.34ZM25.83 10.72L25.83 10.72L25.83 10.72Q25.07 10.92 24.45 10.86L24.45 10.86L24.45 10.86Q23.83 10.81 23.43 10.56L23.43 10.56L23.43 10.56Q23.03 10.32 22.90 9.91L22.90 9.91L22.90 9.91Q22.76 9.49 22.97 8.97L22.97 8.97L22.97 8.97Q23.41 9.34 23.98 9.37L23.98 9.37L23.98 9.37Q24.56 9.41 25.09 9.35L25.09 9.35L25.09 9.35Q25.54 9.31 25.77 9.16L25.77 9.16L25.77 9.16Q26.00 9.00 26.05 8.80L26.05 8.80L26.05 8.80Q26.11 8.60 26.01 8.37L26.01 8.37L26.01 8.37Q25.91 8.15 25.70 7.97L25.70 7.97L25.70 7.97Q25.48 7.78 25.17 7.67L25.17 7.67L25.17 7.67Q24.85 7.56 24.47 7.57L24.47 7.57L24.47 7.57Q24.07 7.60 23.70 7.77L23.70 7.77L23.70 7.77Q23.34 7.94 23.06 8.23L23.06 8.23L23.06 8.23Q22.78 8.53 22.61 8.92L22.61 8.92L22.61 8.92Q22.44 9.31 22.43 9.79L22.43 9.79L22.43 9.79Q22.41 10.18 22.52 10.56L22.52 10.56L22.52 10.56Q22.62 10.93 22.83 11.25L22.83 11.25L22.83 11.25Q23.04 11.56 23.34 11.78L23.34 11.78L23.34 11.78Q23.63 12.00 24.01 12.05L24.01 12.05L24.01 12.05Q24.54 12.15 25.10 11.98L25.10 11.98L25.10 11.98Q25.66 11.82 26.10 11.37L26.10 11.37L27.57 12.08L27.57 12.08Q26.99 12.94 26.21 13.31L26.21 13.31L26.21 13.31Q25.42 13.68 24.42 13.68L24.42 13.68L24.42 13.68Q23.48 13.68 22.77 13.35L22.77 13.35L22.77 13.35Q22.06 13.02 21.60 12.47L21.60 12.47L21.60 12.47Q21.13 11.93 20.90 11.24L20.90 11.24L20.90 11.24Q20.66 10.54 20.68 9.82L20.68 9.82L20.68 9.82Q20.69 9.10 20.96 8.41L20.96 8.41L20.96 8.41Q21.22 7.71 21.73 7.18L21.73 7.18L21.73 7.18Q22.29 6.58 23.04 6.33L23.04 6.33L23.04 6.33Q23.79 6.08 24.57 6.08L24.57 6.08L24.57 6.08Q25.44 6.08 26.07 6.37L26.07 6.37L26.07 6.37Q26.70 6.66 27.09 7.12L27.09 7.12L27.09 7.12Q27.48 7.57 27.61 8.13L27.61 8.13L27.61 8.13Q27.73 8.68 27.59 9.20L27.59 9.20L27.59 9.20Q27.44 9.72 27.01 10.13L27.01 10.13L27.01 10.13Q26.57 10.54 25.83 10.72ZM30.63 3.72L30.63 3.72L30.63 13.52L28.87 13.52L28.87 5.15L28.87 5.15Q28.87 4.48 29.34 4.10L29.34 4.10L29.34 4.10Q29.82 3.71 30.63 3.72ZM33.47 11.73L33.47 11.73L33.47 11.73Q33.91 11.73 34.20 12.04L34.20 12.04L34.20 12.04Q34.51 12.33 34.51 12.77L34.51 12.77L34.51 12.77Q34.51 13.20 34.20 13.50L34.20 13.50L34.20 13.50Q33.91 13.80 33.47 13.80L33.47 13.80L33.47 13.80Q33.05 13.80 32.75 13.50L32.75 13.50L32.75 13.50Q32.45 13.20 32.45 12.77L32.45 12.77L32.45 12.77Q32.45 12.33 32.75 12.04L32.75 12.04L32.75 12.04Q33.05 11.73 33.47 11.73ZM42.11 8.96L42.11 8.96L42.11 8.96Q42 8.57 41.69 8.30L41.69 8.30L41.69 8.30Q41.37 8.04 40.95 7.90L40.95 7.90L40.95 7.90Q40.53 7.77 40.05 7.78L40.05 7.78L40.05 7.78Q39.58 7.78 39.15 7.97L39.15 7.97L39.15 7.97Q38.72 8.15 38.40 8.51L38.40 8.51L38.40 8.51Q38.08 8.86 37.95 9.41L37.95 9.41L37.95 9.41Q37.86 9.86 37.93 10.32L37.93 10.32L37.93 10.32Q38.00 10.78 38.25 11.15L38.25 11.15L38.25 11.15Q38.50 11.52 38.93 11.76L38.93 11.76L38.93 11.76Q39.35 12.00 39.96 12.00L39.96 12.00L39.96 12.00Q41.09 12.00 41.72 11.17L41.72 11.17L43.05 12.14L43.05 12.14Q41.99 13.64 39.98 13.64L39.98 13.64L39.98 13.64Q38.93 13.64 38.17 13.24L38.17 13.24L38.17 13.24Q37.41 12.84 36.93 12.20L36.93 12.20L36.93 12.20Q36.46 11.56 36.29 10.77L36.29 10.77L36.29 10.77Q36.12 9.98 36.25 9.21L36.25 9.21L36.25 9.21Q36.39 8.43 36.83 7.74L36.83 7.74L36.83 7.74Q37.28 7.04 38.05 6.61L38.05 6.61L38.05 6.61Q38.63 6.29 39.28 6.17L39.28 6.17L39.28 6.17Q39.93 6.05 40.59 6.15L40.59 6.15L40.59 6.15Q41.45 6.27 41.94 6.66L41.94 6.66L41.94 6.66Q42.42 7.06 42.57 7.51L42.57 7.51L42.57 7.51Q42.73 7.97 42.60 8.38L42.60 8.38L42.60 8.38Q42.46 8.79 42.11 8.96ZM47.68 6.10L47.68 6.10L47.68 6.10Q48.79 6.10 49.65 6.64L49.65 6.64L49.65 6.64Q50.51 7.17 51.00 7.99L51.00 7.99L51.00 7.99Q51.49 8.82 51.53 9.83L51.53 9.83L51.53 9.83Q51.56 10.84 51.02 11.80L51.02 11.80L51.02 11.80Q50.55 12.60 49.81 13.08L49.81 13.08L49.81 13.08Q49.07 13.55 48.23 13.67L48.23 13.67L48.23 13.67Q47.39 13.79 46.54 13.53L46.54 13.53L46.54 13.53Q45.70 13.27 45.02 12.60L45.02 12.60L45.02 12.60Q44.27 11.83 44.02 10.82L44.02 10.82L44.02 10.82Q43.76 9.81 44.06 8.81L44.06 8.81L44.06 8.81Q44.18 8.40 44.47 8.13L44.47 8.13L44.47 8.13Q44.76 7.87 45.12 7.74L45.12 7.74L45.12 7.74Q45.49 7.62 45.88 7.63L45.88 7.63L45.88 7.63Q46.27 7.64 46.61 7.79L46.61 7.79L46.61 7.79Q46.94 7.94 47.17 8.21L47.17 8.21L47.17 8.21Q47.40 8.48 47.45 8.88L47.45 8.88L47.45 8.88Q47.24 8.72 46.94 8.71L46.94 8.71L46.94 8.71Q46.65 8.71 46.38 8.84L46.38 8.84L46.38 8.84Q46.10 8.97 45.91 9.25L45.91 9.25L45.91 9.25Q45.72 9.52 45.72 9.93L45.72 9.93L45.72 9.93Q45.72 10.63 46.02 11.09L46.02 11.09L46.02 11.09Q46.31 11.55 46.75 11.78L46.75 11.78L46.75 11.78Q47.19 12.01 47.71 12.01L47.71 12.01L47.71 12.01Q48.22 12.01 48.66 11.77L48.66 11.77L48.66 11.77Q49.10 11.54 49.39 11.07L49.39 11.07L49.39 11.07Q49.69 10.60 49.69 9.90L49.69 9.90L49.69 9.90Q49.69 9.35 49.49 8.93L49.49 8.93L49.49 8.93Q49.29 8.51 48.97 8.24L48.97 8.24L48.97 8.24Q48.64 7.97 48.20 7.86L48.20 7.86L48.20 7.86Q47.77 7.76 47.28 7.85L47.28 7.85L47.28 7.85Q47.07 7.60 46.77 7.46L46.77 7.46L46.77 7.46Q46.47 7.31 46.12 7.26L46.12 7.26L46.12 7.26Q45.77 7.21 45.42 7.27L45.42 7.27L45.42 7.27Q45.07 7.34 44.76 7.52L44.76 7.52L44.76 7.52Q45.32 6.85 46.06 6.48L46.06 6.48L46.06 6.48Q46.80 6.10 47.68 6.10ZM54.10 11.73L54.10 11.73L54.10 11.73Q54.53 11.73 54.82 12.04L54.82 12.04L54.82 12.04Q55.13 12.33 55.13 12.77L55.13 12.77L55.13 12.77Q55.13 13.20 54.82 13.50L54.82 13.50L54.82 13.50Q54.53 13.80 54.10 13.80L54.10 13.80L54.10 13.80Q53.68 13.80 53.37 13.50L53.37 13.50L53.37 13.50Q53.07 13.20 53.07 12.77L53.07 12.77L53.07 12.77Q53.07 12.33 53.37 12.04L53.37 12.04L53.37 12.04Q53.68 11.73 54.10 11.73ZM58.88 6.27L58.88 6.27L63.15 6.27L59.89 11.98L62.96 11.98L62.96 13.52L57.09 13.52L60.35 7.81L59.21 7.81L59.21 7.81Q59.00 7.81 58.75 7.83L58.75 7.83L58.75 7.83Q58.51 7.85 58.29 7.93L58.29 7.93L58.29 7.93Q58.07 8.01 57.91 8.14L57.91 8.14L57.91 8.14Q57.75 8.27 57.71 8.50L57.71 8.50L57.71 8.50Q57.43 8.25 57.32 7.86L57.32 7.86L57.32 7.86Q57.22 7.48 57.33 7.13L57.33 7.13L57.33 7.13Q57.44 6.78 57.82 6.52L57.82 6.52L57.82 6.52Q58.20 6.27 58.88 6.27ZM66.88 13.54L64.27 6.29L66.04 6.29L67.51 10.42L68.70 7.31L68.70 7.31Q68.82 6.97 68.99 6.77L68.99 6.77L68.99 6.77Q69.15 6.57 69.34 6.45L69.34 6.45L69.34 6.45Q69.52 6.34 69.74 6.31L69.74 6.31L69.74 6.31Q69.96 6.27 70.18 6.29L70.18 6.29L71.72 10.36L72.83 7.27L72.83 7.27Q72.98 6.85 73.23 6.61L73.23 6.61L73.23 6.61Q73.47 6.37 73.76 6.27L73.76 6.27L73.76 6.27Q74.05 6.16 74.35 6.17L74.35 6.17L74.35 6.17Q74.66 6.19 74.96 6.29L74.96 6.29L72.34 13.54L71.18 13.54L69.62 9.41L68.03 13.54L66.88 13.54Z"></path></g><!----><!----></svg>